<svg id="picture_5_" data-name="picture (5)" xmlns="http://www.w3.org/2000/svg" width="20.204" height="20.204" viewBox="0 0 20.204 20.204">
  <path id="Path_861" data-name="Path 861" d="M15.995,0H4.209A4.214,4.214,0,0,0,0,4.209V15.995A4.214,4.214,0,0,0,4.209,20.2H15.995A4.214,4.214,0,0,0,20.2,15.995V4.209A4.214,4.214,0,0,0,15.995,0ZM4.209,1.684H15.995A2.526,2.526,0,0,1,18.52,4.209V15.995a2.484,2.484,0,0,1-.253,1.082L10.554,9.363a4.209,4.209,0,0,0-5.953,0L1.684,12.279V4.209A2.526,2.526,0,0,1,4.209,1.684Zm0,16.837a2.526,2.526,0,0,1-2.526-2.526V14.66L5.79,10.553a2.526,2.526,0,0,1,3.573,0l7.714,7.715a2.484,2.484,0,0,1-1.082.253Z" fill="#fff"/>
  <path id="Path_862" data-name="Path 862" d="M15.446,9.393A2.946,2.946,0,1,0,12.5,6.446,2.946,2.946,0,0,0,15.446,9.393Zm0-4.209a1.263,1.263,0,1,1-1.263,1.263,1.263,1.263,0,0,1,1.263-1.263Z" transform="translate(-1.977 -0.554)" fill="#fff"/>
</svg>
