<svg xmlns="http://www.w3.org/2000/svg" width="22.666" height="17" viewBox="0 0 22.666 17">
  <g id="eye" transform="translate(0 -3)">
    <path id="Path_748" data-name="Path 748" d="M22.5,10.726h0C21.668,8.913,18.417,3,11.333,3S1,8.913.169,10.726a1.86,1.86,0,0,0,0,1.549C1,14.087,4.25,20,11.333,20S21.668,14.087,22.5,12.274A1.859,1.859,0,0,0,22.5,10.726Zm-11.164,6.44A5.667,5.667,0,1,1,17,11.5,5.667,5.667,0,0,1,11.333,17.167Z" fill="#484848"/>
    <circle id="Ellipse_137" data-name="Ellipse 137" cx="3.5" cy="3.5" r="3.5" transform="translate(8 8)" fill="#484848"/>
  </g>
</svg>
