<svg xmlns="http://www.w3.org/2000/svg" width="20.767" height="18.767" viewBox="0 0 20.767 18.767">
  <g id="Group_2505" data-name="Group 2505" transform="translate(-862 -1184)">
    <path id="arrow-alt-right" d="M18.557,10.188,14.526,6.21a.723.723,0,0,0-1.232.5V9.519H1.173a1.173,1.173,0,0,0,0,2.346H13.294V14.67a.723.723,0,0,0,1.232.5l4.03-3.978a.706.706,0,0,0,0-1.007Z" transform="translate(856 1202.767) rotate(-90)"/>
    <path id="arrow-alt-right-2" data-name="arrow-alt-right" d="M18.557,10.188,14.526,6.21a.723.723,0,0,0-1.232.5V9.519H1.173a1.173,1.173,0,0,0,0,2.346H13.294V14.67a.723.723,0,0,0,1.232.5l4.03-3.978a.706.706,0,0,0,0-1.007Z" transform="translate(888.768 1184) rotate(90)"/>
  </g>
</svg>
