<svg xmlns="http://www.w3.org/2000/svg" width="20.566" height="22.381" viewBox="0 0 20.566 22.381">
  <path id="tags" d="M20.766,8.417,12.355.006,4.635.843l.2,1.854,6.833-.74,7.779,7.778a.711.711,0,0,1-.011,1.011l-.9.927L10.417,3.552,1.894,4.717l-.941,8.51L9.36,21.633a2.573,2.573,0,0,0,3.649-.01l5.824-6.015a2.573,2.573,0,0,0,.708-2.286l1.226-1.266a2.577,2.577,0,0,0,0-3.639ZM5.661,9.328A.933.933,0,1,1,6.593,8.4.933.933,0,0,1,5.661,9.328Z" transform="translate(-0.953 -0.006)" fill="#f60cfe"/>
</svg>
