<svg xmlns="http://www.w3.org/2000/svg" width="15.366" height="17.527" viewBox="0 0 15.366 17.527">
  <g id="flame" transform="translate(-1.479)">
    <path id="Path_854" data-name="Path 854" d="M13.6,17.446c0-.937-.59-1.482-1.721-2.442-.256-.219-.532-.451-.816-.71-.325.3-.634.562-.917.8-1.129.954-1.623,1.42-1.623,2.349a2.539,2.539,0,0,0,5.078,0Z" transform="translate(-1.9 -3.855)"/>
    <path id="Path_855" data-name="Path 855" d="M12.381,2.947C11.5,2.2,10.6,1.434,9.684.519L9.162,0,8.651.519A12.1,12.1,0,0,0,5.889,6.23a4.411,4.411,0,0,1-.569-1.3l-.312-1.2-.9.845c-1.577,1.481-2.629,2.95-2.629,5.3a7.611,7.611,0,0,0,5.7,7.434,8.145,8.145,0,0,0,1.257.215,4.01,4.01,0,0,1-3.275-3.936c0-1.643.991-2.483,2.138-3.463.41-.348.876-.743,1.347-1.217l.52-.517.517.517c.421.421.841.777,1.248,1.123,1.151.976,2.238,1.9,2.238,3.557a4.009,4.009,0,0,1-3.254,3.932,7.675,7.675,0,0,0,6.934-7.644C16.845,6.737,14.776,4.981,12.381,2.947Z"/>
  </g>
</svg>
