<svg xmlns="http://www.w3.org/2000/svg" width="14.581" height="24.275" viewBox="0 0 14.581 24.275">
  <g id="noun-ethereum-4618636" transform="translate(-256.694 -67.109)">
    <path id="Path_869" data-name="Path 869" d="M271.275,240.452a.59.59,0,0,1-.116.354l-6.683,9.562a.6.6,0,0,1-.981,0l-6.69-9.573a.6.6,0,0,1,.855-.82l6.325,4.8,6.325-4.8a.6.6,0,0,1,.333-.124h.038a.6.6,0,0,1,.592.6Z" transform="translate(0 -159.239)" fill="#fff"/>
    <path id="Path_873" data-name="Path 873" d="M276.759,77.678,270.58,67.4a.6.6,0,0,0-1.026,0l-6.178,10.279a.6.6,0,0,0,.148.782l6.178,4.766a.6.6,0,0,0,.731,0l6.178-4.766a.6.6,0,0,0,.148-.782Z" transform="translate(-6.081)" fill="#fff"/>
  </g>
</svg>
