<svg xmlns="http://www.w3.org/2000/svg" width="18.984" height="21.653" viewBox="0 0 18.984 21.653">
  <g id="flame" transform="translate(-1.479)">
    <path id="Path_854" data-name="Path 854" d="M14.8,18.188c0-1.158-.729-1.831-2.127-3.017-.316-.271-.657-.558-1.009-.877-.4.369-.783.694-1.133.992-1.395,1.178-2.006,1.755-2.006,2.9a3.137,3.137,0,1,0,6.274,0Z" transform="translate(-0.689 -1.398)"/>
    <path id="Path_855" data-name="Path 855" d="M14.948,3.64c-1.083-.919-2.2-1.869-3.333-3L10.971,0,10.34.641A14.942,14.942,0,0,0,6.927,7.7a5.449,5.449,0,0,1-.7-1.61L5.839,4.609,4.727,5.653C2.779,7.483,1.479,9.3,1.479,12.2a9.4,9.4,0,0,0,7.037,9.184,10.062,10.062,0,0,0,1.553.266A4.954,4.954,0,0,1,6.022,16.79c0-2.03,1.224-3.068,2.642-4.278.506-.43,1.083-.918,1.665-1.5l.642-.639.639.639c.52.52,1.039.96,1.542,1.388,1.422,1.206,2.764,2.346,2.764,4.395a4.952,4.952,0,0,1-4.02,4.857A9.482,9.482,0,0,0,20.462,12.2C20.462,8.323,17.906,6.153,14.948,3.64Z" transform="translate(0)"/>
  </g>
</svg>
