<svg id="Component_210_1" data-name="Component 210 – 1" xmlns="http://www.w3.org/2000/svg" width="25" height="25" viewBox="0 0 25 25">
  <rect id="avatar_1673027533643" width="25" height="25" rx="12.5" fill="#f60cfe"/>
  <g id="noun-check-5089560" transform="translate(6.039 7.715)">
    <path id="Path_720" data-name="Path 720" d="M170.171,157.542a1.053,1.053,0,0,1-.745-.308l-3.657-3.657,1.489-1.489L170.171,155l7.008-7.008,1.489,1.489-7.753,7.753a1.052,1.052,0,0,1-.744.308Z" transform="translate(-165.77 -147.991)" fill="#fff"/>
  </g>
  <rect id="avatar_1673027533643-2" data-name="avatar_1673027533643" width="25" height="25" rx="12.5" fill="#f60cfe"/>
  <g id="noun-check-5089560-2" data-name="noun-check-5089560" transform="translate(6.039 7.715)">
    <path id="Path_720-2" data-name="Path 720" d="M170.171,157.542a1.053,1.053,0,0,1-.745-.308l-3.657-3.657,1.489-1.489L170.171,155l7.008-7.008,1.489,1.489-7.753,7.753a1.052,1.052,0,0,1-.744.308Z" transform="translate(-165.77 -147.991)" fill="#fff"/>
  </g>
</svg>
