<svg xmlns="http://www.w3.org/2000/svg" width="80" height="80" viewBox="0 0 80 80">
  <g id="Group_2497" data-name="Group 2497" transform="translate(-110 -3667)">
    <circle id="Ellipse_133" data-name="Ellipse 133" cx="40" cy="40" r="40" transform="translate(110 3667)" fill="#f60cfe"/>
    <path id="wallet_1_" data-name="wallet (1)" d="M30.813,7.869H7.336A4.419,4.419,0,0,1,4.057,6.4,4.395,4.395,0,0,1,7.336,4.935H33.748a1.467,1.467,0,0,0,0-2.935H7.336A7.337,7.337,0,0,0,0,9.336V24.009a7.337,7.337,0,0,0,7.336,7.336H30.813a4.4,4.4,0,0,0,4.4-4.4V12.271A4.4,4.4,0,0,0,30.813,7.869ZM32.28,26.944a1.469,1.469,0,0,1-1.467,1.467H7.336a4.407,4.407,0,0,1-4.4-4.4V9.333a7.354,7.354,0,0,0,4.4,1.47H30.813a1.469,1.469,0,0,1,1.467,1.467Zm-2.935-7.336a1.467,1.467,0,1,1-1.467-1.467A1.468,1.468,0,0,1,29.346,19.607Z" transform="translate(132 3690)" fill="#fff"/>
  </g>
</svg>
