<svg xmlns="http://www.w3.org/2000/svg" width="80" height="80" viewBox="0 0 80 80">
  <g id="Group_2499" data-name="Group 2499" transform="translate(-1330 -3667)">
    <circle id="Ellipse_133" data-name="Ellipse 133" cx="40" cy="40" r="40" transform="translate(1330 3667)" fill="#f60cfe"/>
    <path id="tags_3_" data-name="tags (3)" d="M11.026,13.837a1.495,1.495,0,1,1-2.114,0,1.493,1.493,0,0,1,2.114,0Zm20.707,9.1-.845.845a7.44,7.44,0,0,1-2.145,5.081l-4.734,4.8a7.423,7.423,0,0,1-5.3,2.223h-.025A7.422,7.422,0,0,1,13.4,33.689L2.319,22.7A4.465,4.465,0,0,1,1.027,19.03L2.171,8.692A1.5,1.5,0,0,1,3.453,7.375l10.3-1.408A4.511,4.511,0,0,1,17.53,7.239L28.7,18.319A7.463,7.463,0,0,1,30.1,20.244a4.5,4.5,0,0,0-.511-5.733L18.238,3.442a1.508,1.508,0,0,0-1.272-.437L6.667,4.413a1.495,1.495,0,1,1-.407-2.961L16.56.042a4.485,4.485,0,0,1,3.779,1.274l11.345,11.07a7.5,7.5,0,0,1,.048,10.549Zm-5.139-2.5L15.42,9.357a1.519,1.519,0,0,0-1.266-.429L5.012,10.179,4,19.358a1.486,1.486,0,0,0,.429,1.22L15.512,31.569a4.45,4.45,0,0,0,3.174,1.317H18.7a4.443,4.443,0,0,0,3.178-1.335l4.734-4.8a4.494,4.494,0,0,0-.021-6.322Z" transform="translate(1352.594 3689.466)" fill="#fff"/>
  </g>
</svg>
