<svg xmlns="http://www.w3.org/2000/svg" width="80" height="80" viewBox="0 0 80 80">
  <g id="Group_2498" data-name="Group 2498" transform="translate(-720 -3667)">
    <circle id="Ellipse_133" data-name="Ellipse 133" cx="40" cy="40" r="40" transform="translate(720 3667)" fill="#f60cfe"/>
    <path id="cloud-upload-alt" d="M26.238,9.51a1.506,1.506,0,0,1-1.083-.831A11.753,11.753,0,0,0,12.405,2.2a11.6,11.6,0,0,0-9.319,9.49,11.867,11.867,0,0,0,.048,4.219,1.451,1.451,0,0,1-.505,1.315,8.028,8.028,0,0,0,5.4,13.97H24.086A10.948,10.948,0,0,0,26.238,9.511ZM24.086,28.274H8.029a5.109,5.109,0,0,1-3.436-8.89A4.385,4.385,0,0,0,6,15.35a8.966,8.966,0,0,1-.035-3.184,8.786,8.786,0,0,1,6.965-7.1A9.345,9.345,0,0,1,14.6,4.917,8.686,8.686,0,0,1,22.515,9.93a4.4,4.4,0,0,0,3.15,2.442,8.03,8.03,0,0,1-1.581,15.9Zm-2.013-11.25a1.46,1.46,0,1,1-2.064,2.064L17.517,16.6v7.3a1.46,1.46,0,0,1-2.92,0V16.6l-2.492,2.492a1.46,1.46,0,1,1-2.064-2.064l3.952-3.952a2.906,2.906,0,0,1,2.044-.851l.02,0,.02,0a2.9,2.9,0,0,1,2.044.851l3.952,3.952Z" transform="translate(742 3689.996)" fill="#fff"/>
  </g>
</svg>
