<svg xmlns="http://www.w3.org/2000/svg" width="17.994" height="18" viewBox="0 0 17.994 18">
  <g id="settings-sliders_1_" data-name="settings-sliders (1)" transform="translate(0 0.004)">
    <path id="Path_865" data-name="Path 865" d="M8.153,2.248a3,3,0,0,0-5.809,0H0v1.5H2.344a3,3,0,0,0,5.809,0h9.841v-1.5Z"/>
    <path id="Path_866" data-name="Path 866" d="M12.746,8a3,3,0,0,0-2.9,2.249H0v1.5H9.841a3,3,0,0,0,5.809,0h2.344v-1.5H15.65A3,3,0,0,0,12.746,8Z" transform="translate(0 -2.003)"/>
    <path id="Path_867" data-name="Path 867" d="M5.248,16a3,3,0,0,0-2.9,2.249H0v1.5H2.344a3,3,0,0,0,5.809,0h9.841v-1.5H8.153A3,3,0,0,0,5.248,16Z" transform="translate(0 -4.005)"/>
  </g>
</svg>
