<svg xmlns="http://www.w3.org/2000/svg" width="24.002" height="24.016" viewBox="1822 38 24.002 24.016"><path d="m1838.97 46.546 2.332-1.167 1.167-2.333 1.167 2.333 2.333 1.167-2.332 1.168-1.167 2.333-1.168-2.333-2.332-1.168Zm6.032 8.468a1 1 0 1 0 0 2 1 1 0 0 0 0-2Zm-6-4a1 1 0 1 0 0 2 1 1 0 0 0 0-2Zm1.76 8.894 1.466-1.006-1.621-.73c-7.013-3.037-7.5-13.219-.8-16.907l1.542-.88-1.552-.862c-7.763-4.494-17.946 1.535-17.795 10.491a11.975 11.975 0 0 0 18.76 9.894Z" fill="#fff" fill-rule="evenodd" data-name="moon-stars"/></svg>