<svg xmlns="http://www.w3.org/2000/svg" width="24.717" height="24.718" viewBox="74.821 17.404 24.717 24.718"><path d="M88.004 41.298v-2.097a.824.824 0 0 0-1.648 0v2.097a.824.824 0 0 0 1.648 0Zm7.914-3.961-1.482-1.483a.825.825 0 0 0-1.166 1.165l1.483 1.483a.824.824 0 0 0 1.165-1.165Zm-16.312 1.165 1.483-1.483a.825.825 0 0 0-1.165-1.165l-1.484 1.483a.824.824 0 0 0 1.166 1.165Zm7.573-15.33a6.594 6.594 0 0 0-6.59 6.591 6.594 6.594 0 0 0 6.59 6.591 6.594 6.594 0 0 0 6.592-6.59 6.594 6.594 0 0 0-6.592-6.592Zm-4.943 6.591c0-2.728 0 2.729 0 0Zm-4.494-.824h-2.097a.824.824 0 0 0 0 1.648h2.097a.824.824 0 0 0 0-1.648Zm20.972 0h-2.097a.824.824 0 0 0 0 1.648h2.097a.824.824 0 0 0 0-1.648Zm-4.278-5.267 1.482-1.483a.825.825 0 0 0-1.165-1.165l-1.483 1.483a.824.824 0 0 0 1.166 1.165Zm-13.347-1.165-1.483-1.483a.825.825 0 0 0-1.166 1.165l1.483 1.483a.824.824 0 0 0 1.166-1.165Zm6.914-2.182v-2.097a.825.825 0 0 0-1.648 0v2.097a.824.824 0 0 0 1.648 0Z" fill-rule="evenodd" data-name="Path 686"/></svg>