<svg version="1.2" xmlns="http://www.w3.org/2000/svg" viewBox="0 0 640 512" width="640" height="512">
	<title>user-plus-solid-svg</title>
	<style>
		.s0 { fill: #ffffff } 
	</style>
	<path id="Layer" class="s0" d="m96 128c0-70.7 57.3-128 128-128 70.7 0 128 57.3 128 128 0 70.7-57.3 128-128 128-70.7 0-128-57.3-128-128zm352 349.3c0 19.2-15.5 34.7-34.6 34.7h-378.7c-19.2 0-34.7-15.5-34.7-34.7 0-95.7 77.6-173.3 173.3-173.3h101.4c95.7 0 173.3 77.6 173.3 173.3zm192-253.3c0 13.3-10.7 24-24 24h-48v48c0 13.3-10.8 24-24 24-13.2 0-24-10.7-24-24v-48h-48c-13.3 0-24-10.8-24-24 0-13.2 10.8-24 24-24h48v-48c0-13.3 10.7-24 24-24 13.3 0 24 10.8 24 24v48h48c13.3 0 24 10.7 24 24z"/>
</svg>